<?xml version="1.0" standalone="no"?><!DOCTYPE svg PUBLIC "-//W3C//DTD SVG 1.1//EN" "http://www.w3.org/Graphics/SVG/1.1/DTD/svg11.dtd"><svg t="1551510767642" class="icon" style="" viewBox="0 0 1024 1024" version="1.1" xmlns="http://www.w3.org/2000/svg" p-id="2764" xmlns:xlink="http://www.w3.org/1999/xlink" width="48" height="48"><defs><style type="text/css"></style></defs><path d="M0 504.358209a505.886567 504.358209 0 1 0 1011.773134 0 505.886567 504.358209 0 1 0-1011.773134 0Z" fill="#007AFF" p-id="2765"></path><path d="M600.644776 325.540299c3.056716 0 4.585075-1.528358 6.113433-3.056717 6.113433-10.698507 18.340299-16.81194 30.567164-16.81194 4.585075 0 7.641791-4.585075 7.641791-7.641791 0-4.585075-3.056716-7.641791-7.641791-7.641791-18.340299 0-35.152239 9.170149-44.322388 24.453731-1.528358 1.528358-1.528358 3.056716-1.528358 4.585075 1.528358 3.056716 4.585075 6.113433 9.170149 6.113433z m-291.916418 143.665671h-1.528358c-4.585075 0-7.641791 3.056716-7.641791 6.113433v7.641791c0 4.585075 4.585075 7.641791 7.641791 7.641791s7.641791-3.056716 7.641791-7.641791v-3.056716-1.528359-1.528358c0-1.528358 0-3.056716-1.528358-4.585074-1.528358-1.528358-3.056716-3.056716-4.585075-3.056717z m50.435821-45.850746c-21.397015 0-39.737313 10.698507-50.435821 25.982089-1.528358 1.528358-1.528358 3.056716-1.528358 4.585075 0 4.585075 3.056716 7.641791 7.641791 7.641791 3.056716 0 4.585075-1.528358 6.113433-3.056716 7.641791-12.226866 21.397015-19.868657 36.680597-19.868657 4.585075 0 7.641791-3.056716 7.641791-7.641791 1.528358-4.585075-1.528358-7.641791-6.113433-7.641791zM628.155224 556.322388c-22.925373 0-44.322388 12.226866-56.549254 30.567164-1.528358 1.528358-1.528358 3.056716-1.528358 4.585075 0 4.585075 3.056716 7.641791 7.641791 7.641791 3.056716 0 4.585075-1.528358 6.113433-3.056717 9.170149-13.755224 24.453731-22.925373 42.79403-22.925373 4.585075 0 7.641791-3.056716 7.641791-7.641791 1.528358-6.113433-1.528358-9.170149-6.113433-9.170149z" fill="#FFFFFF" p-id="2766"></path><path d="M602.173134 502.829851c-48.907463 0-90.173134 25.98209-113.098507 65.719403l-58.077612-29.038806c9.170149-16.81194 15.283582-35.152239 15.283582-56.549254 0-12.226866-1.528358-25.98209-6.113433-36.680597l90.173135-38.208955c18.340299 24.453731 47.379104 38.208955 81.002985 38.208955 56.549254 0 103.928358-45.850746 103.928358-103.928358 0-56.549254-45.850746-103.928358-103.928358-103.928358-56.549254 0-103.928358 45.850746-103.928359 103.928358 0 12.226866 3.056716 24.453731 6.113433 35.152239l-88.644776 38.208955c-21.397015-30.567164-55.020896-48.907463-94.758209-48.907463-64.191045 0-116.155224 51.964179-116.155224 116.155224 0 64.191045 51.964179 116.155224 116.155224 116.155224 32.095522 0 59.60597-12.226866 81.002985-33.623881l67.247761 32.095523c-3.056716 10.698507-4.585075 21.397015-4.585074 32.095522 0 71.832836 58.077612 129.910448 129.910448 129.910448s129.910448-58.077612 129.910447-129.910448c-3.056716-68.776119-61.134328-126.853731-131.438806-126.853731z m7.641791-229.253732c38.208955 0 70.304478 32.095522 70.304478 70.304478 0 38.208955-32.095522 70.304478-70.304478 70.304478-38.208955 0-70.304478-32.095522-70.304477-70.304478 0-39.737313 32.095522-70.304478 70.304477-70.304478zM330.125373 568.549254c-47.379104 0-85.58806-38.208955-85.58806-85.58806s38.208955-85.58806 85.58806-85.58806 85.58806 38.208955 85.58806 85.58806-39.737313 85.58806-85.58806 85.58806z m272.047761 160.477612c-53.492537 0-96.286567-42.79403-96.286567-96.286567s42.79403-96.286567 96.286567-96.286568 96.286567 42.79403 96.286567 96.286568c0 51.964179-42.79403 96.286567-96.286567 96.286567z" fill="#FFFFFF" p-id="2767"></path></svg>