<?xml version="1.0" standalone="no"?><!DOCTYPE svg PUBLIC "-//W3C//DTD SVG 1.1//EN" "http://www.w3.org/Graphics/SVG/1.1/DTD/svg11.dtd"><svg t="1551533543994" class="icon" style="" viewBox="0 0 1024 1024" version="1.1" xmlns="http://www.w3.org/2000/svg" p-id="5633" xmlns:xlink="http://www.w3.org/1999/xlink" width="32" height="32"><defs><style type="text/css"></style></defs><path d="M652.4 285.65c-24.3 0-43.65 7.65-57.15 22.5-13.5 13.95-20.25 33.3-20.25 57.15h27c0-16.65 3.6-29.7 11.25-39.15 8.1-11.25 20.7-16.65 37.8-16.65 14.4 0 25.65 4.05 33.3 11.7 7.65 7.65 11.7 18.45 11.7 31.5 0 9.45-3.6 18.45-10.35 27-1.35 1.8-5.4 5.85-11.7 12.15-18 16.2-29.7 29.25-34.2 39.6-4.05 8.55-6.3 18.45-6.3 29.7v7.65h27v-7.65c0-9.45 2.25-17.55 6.3-24.75 3.6-6.3 8.55-12.6 16.2-18.9 14.4-13.05 23.85-21.6 27.45-26.1 8.55-11.25 13.05-24.75 13.05-39.6 0-20.25-6.3-36.45-18.9-48.15-12.6-11.7-30.15-18-52.2-18zM647.45 492.65c-5.85 0-10.8 1.8-14.4 5.85-4.05 3.6-5.85 8.55-5.85 14.4 0 5.85 1.8 10.8 5.85 14.4 4.5 4.05 9 5.85 14.4 5.85s10.35-1.8 14.4-5.85c4.05-4.05 6.3-8.55 6.3-14.4 0-5.85-1.8-10.35-5.85-14.4-3.6-3.6-9-5.85-14.85-5.85zM588.05 711.8c-9 0-16.2 5.85-19.35 13.5-11.7 19.35-32.4 31.05-54.45 31.05H376.1v0.45c-3.6 0.9-7.2 2.7-9.9 5.4l-53.1 54.9-55.8-56.7c-3.6-3.6-9-4.05-14.4-4.05H194.3c-35.1 0-63.9-28.35-63.9-63.45V509.3c0-35.1 28.8-63.45 63.9-63.45h95.85c10.35-0.9 18.45-9.45 18.45-19.8 0-10.8-8.1-19.35-18.45-19.8H194.75c-57.6 0-104.4 46.35-104.4 103.5v184.05c0 57.15 46.8 103.95 104.4 103.95h42.3l60.3 59.85c0 0.45 0.45 0.9 0.9 1.35l0.45 0.45 1.35 1.35c4.05 3.6 9 5.85 14.4 5.85 5.4 0 10.35-2.25 14.4-5.85 2.7-2.7 50.4-54.45 58.5-63h126.9c37.8 0 72.45-20.7 90.45-53.1l0.45-0.45c0-0.45 0.45-0.45 0.45-0.9 1.8-3.15 2.7-6.3 2.7-9.9 0-12.15-9-21.6-20.25-21.6z" fill="#1296db" p-id="5634"></path><path d="M903.5 188.9c-19.8-19.8-45.9-30.6-74.25-30.6H459.35c-57.6 0-104.4 46.35-104.4 103.95v301.05c0 57.15 46.8 103.95 104.4 103.95h193.5l60.3 59.85c0 0.45 0.45 0.9 0.9 1.35 0.45 0.45 0.9 0.9 1.35 0.9l0.9 0.9c4.05 3.6 9 5.85 14.4 5.85s10.35-2.25 14.4-5.85c2.7-2.7 50.85-54.45 58.5-63h26.1c57.6 0 104.4-46.35 104.4-103.95v-301.5c-0.45-27.45-10.8-53.55-30.6-72.9z m-9.9 373.95c0 35.1-28.8 63.45-63.9 63.45h-36.9v0.45c-3.6 0.9-7.2 2.7-9.9 4.95L731.6 687.5 674 629.9c-3.6-3.6-8.55-4.05-13.05-4.05H459.35c-35.1 0-63.9-28.35-63.9-63.45V261.8c0-35.1 28.8-63.45 63.9-63.45h369.9c35.1 0 63.9 28.35 63.9 63.45v301.05z" fill="#1296db" p-id="5635"></path></svg>