<?xml version="1.0" standalone="no"?><!DOCTYPE svg PUBLIC "-//W3C//DTD SVG 1.1//EN" "http://www.w3.org/Graphics/SVG/1.1/DTD/svg11.dtd"><svg t="1551533503483" class="icon" style="" viewBox="0 0 1024 1024" version="1.1" xmlns="http://www.w3.org/2000/svg" p-id="4742" xmlns:xlink="http://www.w3.org/1999/xlink" width="32" height="32"><defs><style type="text/css"></style></defs><path d="M880.554667 699.733333a25.6 25.6 0 0 0-25.6 25.6v148.309334A97.792 97.792 0 0 1 758.528 972.8H170.752A98.986667 98.986667 0 0 1 71.936 873.984V150.016A98.986667 98.986667 0 0 1 170.752 51.2h587.776a97.792 97.792 0 0 1 96.426667 98.816v262.144a25.6 25.6 0 0 0 51.2 0V150.016A148.992 148.992 0 0 0 758.528 0H170.752A150.186667 150.186667 0 0 0 20.736 150.016v723.968A150.186667 150.186667 0 0 0 170.752 1024h587.776a148.992 148.992 0 0 0 147.626667-150.016v-148.309333a25.6 25.6 0 0 0-25.6-25.941334z" fill="#1296db" p-id="4743"></path><path d="M669.269333 274.261333H259.669333a25.6 25.6 0 0 0 0 51.2h409.6a25.6 25.6 0 0 0 0-51.2zM669.269333 480.085333H259.669333a25.6 25.6 0 0 0 0 51.2h409.6a25.6 25.6 0 0 0 0-51.2zM993.536 397.141333a25.6 25.6 0 0 0-36.010667 3.754667l-385.706666 477.866667a25.6 25.6 0 0 0 39.936 32.085333l385.536-477.866667a25.6 25.6 0 0 0-3.754667-35.84z" fill="#1296db" p-id="4744"></path></svg>