<?xml version="1.0" standalone="no"?><!DOCTYPE svg PUBLIC "-//W3C//DTD SVG 1.1//EN" "http://www.w3.org/Graphics/SVG/1.1/DTD/svg11.dtd"><svg t="1551533130834" class="icon" style="" viewBox="0 0 1024 1024" version="1.1" xmlns="http://www.w3.org/2000/svg" p-id="2090" xmlns:xlink="http://www.w3.org/1999/xlink" width="32" height="32"><defs><style type="text/css"></style></defs><path d="M696.32 428.8a34.816 34.816 0 1 0 69.696 0 34.816 34.816 0 0 0-69.632 0z" fill="#1296db" p-id="2091"></path><path d="M513.984 64.192a446.464 446.464 0 0 0-372.608 692.48l-74.048 158.72a30.72 30.72 0 0 0 38.016 42.048l180.928-62.72A446.464 446.464 0 1 0 513.92 64.192z m291.584 469.76c-57.28 31.296-184.384 49.536-239.744 49.536-71.296 0-178.56-21.12-237.76-49.472-57.088-27.328-96.448-62.656-96.448-125.888 0-63.296 52.864-100.672 114.56-114.56 47.744-10.816 164.736-19.392 219.648-19.392 54.848 0 168.96 4.736 219.52 19.392 60.8 17.536 114.56 51.264 114.56 114.56 0 63.232-38.784 95.616-94.336 125.888z" fill="#1296db" p-id="2092"></path><path d="M427.136 428.8a34.816 34.816 0 1 0 69.632 0 34.816 34.816 0 0 0-69.632 0z" fill="#1296db" p-id="2093"></path></svg>