<?xml version="1.0" standalone="no"?><!DOCTYPE svg PUBLIC "-//W3C//DTD SVG 1.1//EN" "http://www.w3.org/Graphics/SVG/1.1/DTD/svg11.dtd"><svg t="1551755366606" class="icon" style="" viewBox="0 0 1024 1024" version="1.1" xmlns="http://www.w3.org/2000/svg" p-id="837" xmlns:xlink="http://www.w3.org/1999/xlink" width="48" height="48"><defs><style type="text/css"></style></defs><path d="M187.538286 0h648.923428c65.243429 0 88.868571 6.802286 112.64 19.529143 23.917714 12.726857 42.642286 31.451429 55.369143 55.296 12.726857 23.844571 19.529143 47.542857 19.529143 112.64v648.996571c0 65.243429-6.802286 88.868571-19.529143 112.64-12.726857 23.917714-31.451429 42.642286-55.296 55.369143-23.844571 12.726857-47.542857 19.529143-112.64 19.529143H187.465143c-65.243429 0-88.868571-6.802286-112.64-19.529143a132.900571 132.900571 0 0 1-55.369143-55.296C6.802286 925.257143 0 901.632 0 836.534857V187.465143c0-65.243429 6.802286-88.868571 19.529143-112.64 12.726857-23.917714 31.451429-42.642286 55.296-55.369143C98.742857 6.802286 122.368 0 187.465143 0z m329.874285 149.357714c-93.915429 0-169.984 71.460571-169.984 159.670857 0 25.746286 6.582857 50.980571 19.017143 73.435429L228.937143 482.816a108.617143 108.617143 0 0 0-60.196572-17.92c-57.782857 0-104.740571 44.105143-104.740571 98.450286 0 54.345143 46.884571 98.377143 104.740571 98.377143 57.782857 0 104.740571-44.032 104.740572-98.377143 0-12.288-2.413714-23.990857-6.802286-34.816l137.508572-100.278857c23.698286 19.675429 52.077714 32.694857 82.432 37.814857v153.307428c-61.220571 13.165714-106.788571 64.585143-106.788572 126.025143 0 71.387429 61.586286 129.243429 137.508572 129.243429 76.068571 0 137.654857-57.856 137.654857-129.243429 0-61.44-45.641143-112.859429-106.788572-126.025143V466.066286c30.281143-5.12 58.733714-18.139429 82.285715-37.814857l137.581714 100.205714c-4.388571 10.898286-6.802286 22.674286-6.802286 34.889143 0 54.345143 46.957714 98.377143 104.813714 98.377143 57.782857 0 104.740571-44.032 104.740572-98.377143s-46.957714-98.450286-104.740572-98.450286c-21.430857 0-42.349714 6.144-60.196571 17.92l-137.508571-100.352c12.434286-22.454857 19.017143-47.689143 19.017142-73.435429 0-88.210286-76.068571-159.670857-169.984-159.670857z" p-id="838"></path></svg>